<svg width="72" height="72" viewBox="0 0 72 72" fill="none" xmlns="http://www.w3.org/2000/svg">
<g clip-path="url(#clip0)">
<path d="M72 36C72.0064 40.8733 71.02 45.6968 69.1008 50.1763L68.9815 50.4511C65.7352 57.8364 60.1062 63.9197 52.9946 67.7283C45.883 71.537 37.6997 72.8509 29.7533 71.46C29.537 71.4216 29.3212 71.3819 29.1057 71.3407C26.8789 70.909 24.6984 70.266 22.5937 69.4203C22.2518 69.283 21.9124 69.1406 21.5755 68.9932C21.3454 68.8931 21.1154 68.7898 20.8875 68.6833C14.6524 65.7935 9.37333 61.1815 5.67259 55.3908C1.97185 49.6001 0.00366034 42.8722 0 36C0 16.118 16.118 0 36 0C55.882 0 72 16.118 72 36Z" fill="#FF0040"/>
<path opacity="0.2" d="M23.6145 25.7242C22.9349 29.5582 24.4351 33.0299 24.4351 33.0299C24.4351 33.0299 27.0371 30.2853 27.7167 26.4513C28.3963 22.6173 26.8961 19.1456 26.8961 19.1456C26.8961 19.1456 24.2941 21.8902 23.6145 25.7242Z" fill="black"/>
<path d="M35.926 43.9721C43.6772 43.9721 49.9607 37.6885 49.9607 29.9374C49.9607 22.1863 43.6772 15.9027 35.926 15.9027C28.1749 15.9027 21.8914 22.1863 21.8914 29.9374C21.8914 37.6885 28.1749 43.9721 35.926 43.9721Z" fill="#D0CDE1"/>
<path d="M30.4438 40.6827C30.4438 40.6827 32.1981 49.0158 32.1981 49.893C32.1981 50.7701 40.5312 54.7174 40.5312 54.7174L47.9871 53.4017L50.6187 45.5071C50.6187 45.5071 46.2328 38.9284 46.2328 36.2969L30.4438 40.6827Z" fill="#D0CDE1"/>
<path d="M69.1008 50.1764L68.9815 50.4512C65.7352 57.8364 60.1062 63.9198 52.9946 67.7284C45.883 71.5371 37.6997 72.851 29.7533 71.4601C29.537 71.4217 29.3212 71.382 29.1057 71.3408C26.8789 70.9091 24.6984 70.2661 22.5937 69.4204C22.2518 69.283 21.9124 69.1407 21.5755 68.9933C21.3454 68.8932 21.1154 68.7899 20.8875 68.6834C18.8215 67.7263 16.8511 66.5751 15.0028 65.2453L13.3392 60.4194L14.2743 59.7058L16.1979 58.237L18.2503 56.6703L18.7839 56.2623L26.837 50.1146L27.4314 49.6609L31.6172 46.4657L31.6182 46.4646C31.6182 46.4646 36.1449 53.8403 42.7239 51.6473C49.303 49.4543 49.1592 43.166 49.1592 43.166L69.1008 50.1764Z" fill="#2F2E41"/>
<path d="M23.7552 18.6302C23.7552 18.6302 28.2112 8.97557 36.7518 11.2036C45.2924 13.4315 50.1196 16.7735 50.491 20.1155C50.8623 23.4574 50.3053 28.4704 50.3053 28.4704C50.3053 28.4704 49.377 21.6008 43.4357 23.0861C37.4944 24.5714 28.2112 23.4574 28.2112 23.4574L26.7259 36.8253C26.7259 36.8253 25.0549 34.4117 23.1982 35.897C21.3416 37.3823 17.8139 21.6008 23.7552 18.6302Z" fill="#2F2E41"/>
<path d="M22.5937 69.4204C22.2518 69.283 21.9124 69.1406 21.5755 68.9933C21.3454 68.8932 21.1154 68.7898 20.8875 68.6833C17.4706 67.0989 14.3228 64.9893 11.5583 62.4313C12.5372 61.0978 13.3392 60.4193 13.3392 60.4193H19.9182L20.9045 63.736L22.5937 69.4204Z" fill="#2F2E41"/>
<path d="M63.3376 49.4541L68.9815 50.451C67.4712 53.8918 65.4313 57.0749 62.9361 59.8845L63.3376 49.4541Z" fill="#2F2E41"/>
</g>
<defs>
<clipPath id="clip0">
<rect width="72" height="72" fill="white"/>
</clipPath>
</defs>
</svg>
