<svg width="108" height="76" viewBox="0 0 108 76" fill="none" xmlns="http://www.w3.org/2000/svg">
<path fill-rule="evenodd" clip-rule="evenodd" d="M41.9275 6.68037C54.4525 0.0428548 67.969 -1.38215 78.9823 1.23114C104.119 7.19599 106.107 26.0679 92.7073 45.6007C86.5877 54.5187 77.5127 63.1016 66.5838 68.5109C48.6705 77.3727 31.4603 77.8789 20.1892 71.0422C8.8712 64.1773 6.13838 52.6812 10.1767 40.4539C14.4025 27.6523 25.9595 14.5812 41.9275 6.68037Z" fill="#DA0037"/>
<path d="M81.4479 21.0921L81.4385 21.1202C81.3682 21.8046 81.3846 22.5195 81.483 23.239C81.5908 24.0288 81.8018 24.8421 82.1065 25.6554C82.5307 26.7945 83.1026 27.8281 83.794 28.6835C84.4198 29.4546 85.1416 30.0898 85.9432 30.5304C86.9698 30.964 87.9073 31.1656 88.6901 31.1492C89.3323 31.1351 89.8409 30.9757 90.1596 30.6781C90.3987 30.4554 90.5534 30.1038 90.6213 29.6187C90.7151 28.9601 90.6471 28.0999 90.4245 27.0359C90.3659 26.7546 90.2979 26.4827 90.2229 26.2202C90.1479 25.9671 90.0588 25.6976 89.9557 25.4187C89.4377 24.0335 88.6995 22.7749 87.7854 21.8116C86.9932 20.9796 86.0721 20.3679 85.0479 20.096C83.9721 19.8101 83.0604 19.782 82.4065 20.0257C81.9729 20.1874 81.6471 20.5109 81.4713 21.003L81.4479 21.0921ZM80.9651 4.18895C86.2948 2.19911 91.6034 2.6538 96.1057 4.87099C100.782 7.17724 104.564 11.389 106.561 16.7327C107.679 19.7234 108.136 22.8218 107.965 25.8195C107.796 28.8124 106.992 31.707 105.589 34.2874C105.532 34.407 105.443 34.5851 105.317 34.8242C105.199 35.0445 105.094 35.2273 105.007 35.3726C102.832 38.9375 100.613 41.4781 98.3815 43.339C96.1198 45.2281 93.8721 46.4023 91.662 47.2273C86.2127 49.264 80.8221 48.8187 76.2635 46.6109C71.4822 44.2976 67.6385 40.0437 65.6393 34.6906C64.5447 31.7609 64.0478 28.8382 64.1392 25.9929C64.2307 23.1195 64.9221 20.3491 66.2041 17.7523C67.1603 15.821 68.6932 13.6132 70.6666 11.4921C72.408 9.62646 74.5033 7.80537 76.8611 6.28193L76.8869 6.26552C77.4986 5.85771 78.1479 5.47802 78.8299 5.13114C79.5213 4.77724 80.2338 4.46317 80.9651 4.18895Z" fill="white"/>
<path d="M55.9924 14.0398L65.0861 10.6413C65.9088 10.3343 66.8252 10.7515 67.1322 11.5741C67.1486 11.6187 67.1627 11.6632 67.1768 11.7077L80.1518 46.3039C80.2572 46.4914 80.3276 46.7047 80.3463 46.9343C80.3908 47.4218 80.2104 47.8765 79.8916 48.1976L75.6447 52.4539C75.4666 52.632 75.258 52.7609 75.033 52.8359L67.5307 55.6015C67.0385 55.7844 66.5111 55.7047 66.1057 55.4351L66.1033 55.4398L57.6072 49.8031L59.1986 54.0805C59.3463 54.3242 59.4283 54.6125 59.4236 54.9172C59.4166 55.3508 59.2385 55.7398 58.9525 56.0211L54.6963 60.2562C54.5299 60.4203 54.3377 60.5398 54.1338 60.6172V60.6195L44.958 64.0484C44.1353 64.3555 43.2189 63.9383 42.9119 63.1156L29.8501 28.1609C29.6087 27.514 29.815 26.8085 30.3165 26.389L34.4486 22.2382C34.6267 22.0601 34.8376 21.9312 35.0603 21.8562L43.0595 18.9148C43.5494 18.7343 44.072 18.8116 44.4775 19.0765L44.4798 19.0741L52.2634 24.1577L50.8361 20.3304C50.6134 19.7327 50.7752 19.0835 51.1994 18.6569L55.4275 14.4101C55.5939 14.2437 55.7884 14.1218 55.9947 14.0444L55.9924 14.0398Z" fill="white"/>
<path d="M24.9095 71.3469C21.3329 71.7313 18.197 71.0235 15.5087 69.4203C11.8759 67.2524 9.14071 63.4836 7.31493 58.5969L0.10085 39.289C-0.140557 38.6421 0.0656936 37.9367 0.567257 37.5148L4.6993 33.3663C4.8657 33.1999 5.05789 33.0781 5.26414 33.0007V32.996L14.4306 29.5695C15.2532 29.2624 16.1696 29.6796 16.4767 30.5023L23.8454 50.225C24.279 51.3804 24.8884 52.4328 25.7064 53.1406C26.3345 53.6867 27.1079 54.0383 28.0501 54.0758C28.2447 54.0851 28.4603 54.0875 28.6267 54.0617C28.629 53.7031 28.5939 53.3398 28.5329 52.9765C28.4392 52.4351 28.2775 51.875 28.0689 51.3148L20.6978 31.5945C20.4564 30.9453 20.6649 30.2398 21.1665 29.8179L25.1626 25.8124C25.3361 25.5874 25.5751 25.407 25.8611 25.2991L35.0275 21.8726C35.8501 21.5655 36.7665 21.9827 37.0736 22.8054L44.3767 42.35C45.5041 45.3687 46.0619 48.2398 46.0267 50.9281C45.9916 53.6515 45.3494 56.1664 44.0791 58.4328C43.0853 60.2047 41.1423 62.0844 39.2158 63.95C38.7798 64.3719 38.3439 64.7914 37.9806 65.1524L37.9501 65.1828C37.2283 65.9492 36.415 66.6617 35.5056 67.3109C32.3837 69.5445 28.7181 70.9391 24.9095 71.3469Z" fill="white"/>
<path fill-rule="evenodd" clip-rule="evenodd" d="M56.5478 15.5304L65.644 12.1319L78.7502 47.082L78.769 47.0797L74.5244 51.3359L66.9822 54.1156L54.4197 45.7812L57.8064 54.882L57.776 54.8937H57.8369L53.5783 59.1289L44.4002 62.5578L31.3408 27.6054L35.5689 23.3562L43.608 20.4007L55.4322 28.121L52.3197 19.7773L56.5478 15.5304Z" fill="black"/>
<path fill-rule="evenodd" clip-rule="evenodd" d="M81.5229 5.67958C91.5424 1.9366 101.445 7.58739 105.071 17.2905C107.161 22.8874 106.774 28.8617 104.142 33.6242C104.007 33.9242 103.842 34.2312 103.65 34.5476C99.4901 41.3656 95.2409 44.1922 91.1065 45.7367C80.7869 49.5945 70.7439 43.8078 67.1299 34.1328C65.0744 28.6343 65.2689 23.2296 67.6291 18.4554C69.3025 15.0616 72.9564 10.6999 77.719 7.62021L77.7213 7.61786C78.8674 6.85146 80.1354 6.19755 81.5229 5.67958ZM79.8776 20.8015C79.8916 20.7476 79.908 20.6937 79.9244 20.6398C80.5901 18.4718 82.7346 17.8413 85.458 18.5655C88.2166 19.2968 90.3166 21.8445 91.444 24.8609C91.6713 25.4702 91.8518 26.089 91.9807 26.7077C92.4963 29.1827 92.269 30.8796 91.2377 31.8406C90.0307 32.9632 87.8112 33.057 85.2729 31.9695C83.1799 30.8562 81.558 28.7327 80.6158 26.2132C79.9432 24.4156 79.669 22.5359 79.8776 20.8015Z" fill="black"/>
<path fill-rule="evenodd" clip-rule="evenodd" d="M63.115 33.1367L56.5478 15.5304L65.6439 12.1319L78.7526 47.0867L71.2104 49.8687L50.9345 36.4179L57.8064 54.882L48.6306 58.3109L35.5689 23.3562L43.608 20.4007L63.115 33.1367Z" fill="black"/>
<path fill-rule="evenodd" clip-rule="evenodd" d="M65.5338 36.1624L58.1041 16.2405L64.9361 13.6882L77.194 46.3742L71.3674 48.5211L48.5041 33.3523L56.2525 54.1719L49.3385 56.7547L37.1275 24.0734L43.4556 21.746L65.5338 36.1624Z" fill="white"/>
<path fill-rule="evenodd" clip-rule="evenodd" d="M55.172 53.6773L49.833 55.6742L38.2103 24.5702L43.3501 22.6812L67.2119 38.2624L59.1846 16.7327L64.4439 14.7687L76.1111 45.8773L71.4775 47.5859L46.8142 31.2242L55.172 53.6773Z" fill="#F8DA27"/>
<path fill-rule="evenodd" clip-rule="evenodd" d="M81.5229 5.67958C91.5424 1.9366 101.445 7.58739 105.071 17.2905C108.685 26.9632 104.897 37.7632 94.9057 41.4968C84.9166 45.2281 74.9721 39.5609 71.358 29.8859C67.7322 20.1851 71.5033 9.42255 81.5229 5.67958ZM84.8323 14.5366C79.7815 16.4233 78.8862 21.582 80.6159 26.2132C82.3502 30.8538 86.3956 34.1562 91.4557 32.2648C96.5206 30.3734 97.3878 25.2312 95.6557 20.5929C93.926 15.9663 89.8831 12.6476 84.8323 14.5366Z" fill="black"/>
<path fill-rule="evenodd" clip-rule="evenodd" d="M81.9448 6.81161C91.3315 3.30536 100.542 8.63037 103.936 17.7124C107.321 26.7687 103.838 36.8679 94.4838 40.3625C85.1276 43.857 75.8744 38.5179 72.4924 29.464C69.0986 20.3796 72.5604 10.3202 81.9448 6.81161ZM84.408 13.4023C78.7104 15.5304 77.5151 21.3734 79.4838 26.6374C81.4526 31.9085 86.1705 35.532 91.8799 33.3992C97.5917 31.264 98.7565 25.4374 96.7877 20.171C94.8237 14.9116 90.108 11.2718 84.408 13.4023Z" fill="white"/>
<path fill-rule="evenodd" clip-rule="evenodd" d="M84.1151 12.6147C90.0518 10.3976 95.3487 13.9202 97.5753 19.8757C99.8018 25.8312 98.1331 31.9577 92.1729 34.1867C86.2174 36.4109 80.9206 32.8882 78.6963 26.9304C76.4698 20.9749 78.176 14.8343 84.1151 12.6147ZM82.2401 7.59911C91.0245 4.31785 99.8511 9.17646 103.151 18.0054C106.449 26.8366 102.919 36.3148 94.1885 39.575C85.4581 42.8375 76.5776 37.9999 73.2776 29.1687C69.9799 20.3398 73.4557 10.8804 82.2401 7.59911Z" fill="#F8DA27"/>
<path fill-rule="evenodd" clip-rule="evenodd" d="M23.9204 69.8375C16.6946 70.2453 11.6345 65.6117 8.80557 58.0414L1.59149 38.7335L5.81962 34.4867L14.9884 31.0601L22.3572 50.7804C23.3087 53.3258 25.0806 55.5406 27.9869 55.6601C28.8119 55.693 29.9626 55.6273 30.1994 54.5C30.2814 53.2672 30.0142 51.9781 29.5572 50.7593L22.1884 31.0367L26.4189 26.7945L26.4165 26.7898L26.4306 26.7827L26.4353 26.7781L26.4423 26.7804L35.5853 23.3632L42.8884 42.9078C44.9978 48.5562 44.9861 53.5648 42.6939 57.657C41.6134 59.5859 39.0611 61.8547 36.8697 64.0227L36.8603 64.0297C33.6189 67.5148 28.6009 69.5727 23.9204 69.8375Z" fill="black"/>
<path fill-rule="evenodd" clip-rule="evenodd" d="M35.9767 63.4414L36.0142 63.5469L34.0947 64.2641C34.0384 64.2852 33.9822 64.3039 33.9564 64.3133C33.8931 64.3367 33.8298 64.3625 33.7665 64.3859L31.847 65.1031L31.8048 64.993C22.6079 67.4117 16.3196 62.5836 13.036 53.7945L5.81961 34.4867L14.9884 31.0601L22.3571 50.7804C23.3087 53.3258 25.0806 55.5406 27.9868 55.6601C28.854 55.6953 29.7212 55.5336 30.5322 55.2312C31.3595 54.9219 32.1353 54.4648 32.7751 53.8554C34.8681 51.8586 34.7298 49.032 33.7876 46.5101L26.4165 26.7898L35.5853 23.3632L42.8884 42.9078C46.2095 51.7953 44.5666 59.2672 35.9767 63.4414Z" fill="black"/>
<path fill-rule="evenodd" clip-rule="evenodd" d="M34.4486 62.8109L34.4579 62.8367L33.6704 63.1297C33.6142 63.1508 33.5579 63.1719 33.5204 63.1859C33.4618 63.207 33.4032 63.2305 33.3423 63.2516L32.5571 63.5469L32.5454 63.5187C23.454 66.4086 17.3931 62 14.1681 53.3703L7.37585 35.1945L14.2782 32.6163L21.2228 51.2047C22.3524 54.2281 24.5251 56.7289 27.9353 56.8695C28.9642 56.9117 29.9931 56.7242 30.9564 56.3656C31.9361 55.9976 32.8525 55.4539 33.6095 54.7297C36.0681 52.3859 36.0423 49.0906 34.9197 46.0882L27.9728 27.4976L34.8751 24.9195L41.754 43.3296C45.0095 52.0437 43.2798 59.0305 34.4486 62.8109Z" fill="white"/>
<path fill-rule="evenodd" clip-rule="evenodd" d="M8.45868 35.689L13.786 33.6968L20.4376 51.5C22.6361 57.3828 27.3118 58.5851 31.2493 57.1508C35.1634 55.6508 37.9595 51.6922 35.7072 45.7929L29.0556 27.9921L34.3829 25.9999L40.9666 43.625C43.5962 50.6586 43.6314 58.3484 33.3751 62.3398L33.3775 62.3445C33.3236 62.3633 33.2697 62.382 33.2181 62.4008C33.1619 62.4219 33.1056 62.4453 33.0494 62.4664L33.047 62.4617C22.9712 66.0617 17.6485 60.282 14.9556 53.0773L8.45868 35.689Z" fill="#F6C90E"/>
<path fill-rule="evenodd" clip-rule="evenodd" d="M53.6884 20.0655L56.9978 16.7327L58.8541 21.7132L55.547 25.0437L53.6884 20.0655ZM56.1728 26.7171L59.4822 23.3843L60.1853 25.271L56.8783 28.6015L56.1728 26.7171Z" fill="#58585A"/>
<path fill-rule="evenodd" clip-rule="evenodd" d="M23.5712 31.3202L26.8806 27.9874L28.7392 32.9679L25.4298 36.2984L23.5712 31.3202ZM26.0556 37.9718L29.365 34.639L30.0681 36.5257L26.761 39.8539L26.0556 37.9718Z" fill="#58585A"/>
<path fill-rule="evenodd" clip-rule="evenodd" d="M7.14618 50.2273L10.4579 46.8945L12.3142 51.875L9.00712 55.2055L7.14618 50.2273ZM9.63056 56.8789L12.9423 53.5461L12.9446 53.5508L13.036 53.7945C13.2446 54.3547 13.4673 54.9008 13.7017 55.4305L10.3524 58.8031L9.63056 56.8789Z" fill="#58585A"/>
<path fill-rule="evenodd" clip-rule="evenodd" d="M88.9338 19.0319L92.2667 15.678C93.4854 16.6601 94.4885 18.0077 95.2174 19.5569L91.9174 22.878C91.1792 21.4226 90.1807 20.0655 88.9338 19.0319ZM92.6159 24.4788L95.8667 21.2046C96.0917 21.903 96.2557 22.6062 96.3565 23.307L93.1924 26.4921L93.1854 26.4546C93.0448 25.7843 92.8549 25.1234 92.6159 24.4788Z" fill="#58585A"/>
</svg>
